<svg width="16" height="16" viewBox="0 0 16 16" fill="none" xmlns="http://www.w3.org/2000/svg">
<g opacity="0.1">
<path opacity="0.1" d="M16 15.6224V16H15.6224" stroke="#20263C" stroke-miterlimit="10"/>
<path opacity="0.1" d="M14.8962 16H0.741272" stroke="#20263C" stroke-miterlimit="10" stroke-dasharray="5.77 5.77"/>
<path opacity="0.1" d="M0.377566 16H0V15.6224" stroke="#20263C" stroke-miterlimit="10"/>
<path opacity="0.1" d="M0 14.8962V0.740088" stroke="#20263C" stroke-miterlimit="10" stroke-dasharray="5.77 5.77"/>
<path opacity="0.1" d="M0 0.377596V0H0.377566" stroke="#20263C" stroke-miterlimit="10"/>
<path opacity="0.1" d="M1.10375 0H15.2587" stroke="#20263C" stroke-miterlimit="10" stroke-dasharray="5.77 5.77"/>
<path opacity="0.1" d="M15.6224 0H16V0.377596" stroke="#20263C" stroke-miterlimit="10"/>
<path opacity="0.1" d="M16 1.10258V15.2599" stroke="#20263C" stroke-miterlimit="10" stroke-dasharray="5.77 5.77"/>
</g>
<path d="M8.119 6.12214C8.36596 6.12237 8.61011 6.176 8.83551 6.27951C9.0609 6.38303 9.2625 6.53412 9.42714 6.72292L9.94258 6.24631C9.61265 5.86998 9.1798 5.60439 8.70049 5.48422C8.22119 5.36403 7.71771 5.39483 7.25572 5.57259C6.79374 5.75035 6.39472 6.06681 6.11074 6.48068C5.82674 6.89456 5.67099 7.38662 5.66376 7.89267C5.65654 8.39872 5.7982 8.89525 6.07025 9.31747C6.34231 9.7397 6.73212 10.068 7.18884 10.2596C7.64554 10.4511 8.14795 10.497 8.63048 10.3913C9.11299 10.2855 9.55325 10.0331 9.89377 9.6668L9.39004 9.17615C9.18937 9.39139 8.93984 9.55227 8.66375 9.64442C8.38766 9.73656 8.0936 9.75711 7.80788 9.70419C7.52215 9.65129 7.25368 9.5266 7.02642 9.34125C6.79917 9.1559 6.62022 8.91568 6.50561 8.64206C6.39098 8.36845 6.34424 8.06996 6.36956 7.77329C6.39489 7.47661 6.49149 7.191 6.65072 6.94199C6.80996 6.69296 7.02688 6.48829 7.28209 6.34628C7.53728 6.20425 7.82281 6.12931 8.11316 6.12814L8.119 6.12214Z" fill="#414042"/>
<path d="M5.78935 5.52666L5.28082 5.03461C4.88356 5.41412 4.56833 5.86522 4.35321 6.36203C4.13811 6.85882 4.02737 7.39152 4.02737 7.92952C4.02737 8.46751 4.13811 9.00021 4.35321 9.497C4.56833 9.99381 4.88356 10.4449 5.28082 10.8244L5.78935 10.3324C5.45814 10.0182 5.19517 9.644 5.01569 9.23153C4.83622 8.81907 4.74381 8.37651 4.74381 7.92952C4.74381 7.48252 4.83622 7.03996 5.01569 6.6275C5.19517 6.21503 5.45814 5.84086 5.78935 5.52666Z" fill="#414042"/>
<path d="M10.5719 4.59098C9.87848 4.06044 9.04064 3.77488 8.1806 3.77596V4.49036C8.89024 4.48968 9.5817 4.72437 10.155 5.16048L10.5719 4.59098Z" fill="#414042"/>
<path d="M8.1806 11.3783V12.0831C8.9851 12.084 9.77238 11.8494 10.446 11.4081L10.0503 10.8244C9.49365 11.1868 8.84414 11.3792 8.1806 11.3783Z" fill="#414042"/>
<path d="M8.1806 10.5079C7.63562 10.5075 7.10391 10.3445 6.65745 10.0409C6.21098 9.73734 5.87132 9.30784 5.68442 8.81057L5.03422 9.10388C5.27907 9.72142 5.71075 10.2524 6.27241 10.627C6.83406 11.0015 7.49934 11.202 8.1806 11.202V10.5079Z" fill="#414042"/>
<path d="M5.60271 7.80365C5.64492 7.14154 5.93482 6.52044 6.41356 6.06638C6.8923 5.61233 7.52404 5.35932 8.1806 5.35868V4.65702C7.3398 4.65699 6.53118 4.98364 5.92208 5.56935C5.31298 6.15508 4.95002 6.95503 4.90836 7.80365H5.60271Z" fill="#414042"/>
<g filter="url(#filter0_d_0_1)">
<path d="M7.68482 9V6.906H7.93682V8.778H8.82782V9H7.68482ZM9.50645 9.036C9.40045 9.036 9.30445 9.017 9.21845 8.979C9.13445 8.941 9.06145 8.887 8.99945 8.817C8.93945 8.745 8.89245 8.66 8.85845 8.562C8.82645 8.462 8.81045 8.35 8.81045 8.226C8.81045 8.104 8.82645 7.993 8.85845 7.893C8.89245 7.793 8.93945 7.708 8.99945 7.638C9.06145 7.566 9.13445 7.511 9.21845 7.473C9.30445 7.435 9.40045 7.416 9.50645 7.416C9.61045 7.416 9.70345 7.435 9.78545 7.473C9.86745 7.511 9.93745 7.564 9.99545 7.632C10.0535 7.698 10.0975 7.777 10.1275 7.869C10.1595 7.961 10.1755 8.062 10.1755 8.172V8.286H9.06245V8.358C9.06245 8.424 9.07245 8.486 9.09245 8.544C9.11445 8.6 9.14445 8.649 9.18245 8.691C9.22245 8.733 9.27045 8.766 9.32645 8.79C9.38445 8.814 9.44945 8.826 9.52145 8.826C9.61945 8.826 9.70445 8.803 9.77645 8.757C9.85045 8.711 9.90745 8.645 9.94745 8.559L10.1185 8.682C10.0685 8.788 9.99045 8.874 9.88445 8.94C9.77845 9.004 9.65245 9.036 9.50645 9.036ZM9.50645 7.617C9.44045 7.617 9.38045 7.629 9.32645 7.653C9.27245 7.675 9.22545 7.707 9.18545 7.749C9.14745 7.791 9.11745 7.841 9.09545 7.899C9.07345 7.955 9.06245 8.017 9.06245 8.085V8.106H9.91745V8.073C9.91745 7.935 9.87945 7.825 9.80345 7.743C9.72945 7.659 9.63045 7.617 9.50645 7.617ZM10.9429 9.036C10.8369 9.036 10.7409 9.017 10.6549 8.979C10.5709 8.941 10.4979 8.887 10.4359 8.817C10.3759 8.745 10.3289 8.66 10.2949 8.562C10.2629 8.462 10.2469 8.35 10.2469 8.226C10.2469 8.104 10.2629 7.993 10.2949 7.893C10.3289 7.793 10.3759 7.708 10.4359 7.638C10.4979 7.566 10.5709 7.511 10.6549 7.473C10.7409 7.435 10.8369 7.416 10.9429 7.416C11.0469 7.416 11.1399 7.435 11.2219 7.473C11.3039 7.511 11.3739 7.564 11.4319 7.632C11.4899 7.698 11.5339 7.777 11.5639 7.869C11.5959 7.961 11.6119 8.062 11.6119 8.172V8.286H10.4989V8.358C10.4989 8.424 10.5089 8.486 10.5289 8.544C10.5509 8.6 10.5809 8.649 10.6189 8.691C10.6589 8.733 10.7069 8.766 10.7629 8.79C10.8209 8.814 10.8859 8.826 10.9579 8.826C11.0559 8.826 11.1409 8.803 11.2129 8.757C11.2869 8.711 11.3439 8.645 11.3839 8.559L11.5549 8.682C11.5049 8.788 11.4269 8.874 11.3209 8.94C11.2149 9.004 11.0889 9.036 10.9429 9.036ZM10.9429 7.617C10.8769 7.617 10.8169 7.629 10.7629 7.653C10.7089 7.675 10.6619 7.707 10.6219 7.749C10.5839 7.791 10.5539 7.841 10.5319 7.899C10.5099 7.955 10.4989 8.017 10.4989 8.085V8.106H11.3539V8.073C11.3539 7.935 11.3159 7.825 11.2399 7.743C11.1659 7.659 11.0669 7.617 10.9429 7.617ZM12.1394 9C12.0554 9 11.9914 8.977 11.9474 8.931C11.9054 8.883 11.8844 8.821 11.8844 8.745V7.662H11.6294V7.452H11.7734C11.8254 7.452 11.8604 7.442 11.8784 7.422C11.8984 7.4 11.9084 7.363 11.9084 7.311V7.023H12.1244V7.452H12.4634V7.662H12.1244V8.79H12.4394V9H12.1394Z" fill="black"/>
</g>
<defs>
<filter id="filter0_d_0_1" x="3.68482" y="6.906" width="12.7786" height="10.13" filterUnits="userSpaceOnUse" color-interpolation-filters="sRGB">
<feFlood flood-opacity="0" result="BackgroundImageFix"/>
<feColorMatrix in="SourceAlpha" type="matrix" values="0 0 0 0 0 0 0 0 0 0 0 0 0 0 0 0 0 0 127 0" result="hardAlpha"/>
<feOffset dy="4"/>
<feGaussianBlur stdDeviation="2"/>
<feComposite in2="hardAlpha" operator="out"/>
<feColorMatrix type="matrix" values="0 0 0 0 0 0 0 0 0 0 0 0 0 0 0 0 0 0 0.25 0"/>
<feBlend mode="normal" in2="BackgroundImageFix" result="effect1_dropShadow_0_1"/>
<feBlend mode="normal" in="SourceGraphic" in2="effect1_dropShadow_0_1" result="shape"/>
</filter>
</defs>
</svg>
