<svg width="128" height="128" viewBox="0 0 128 128" fill="none" xmlns="http://www.w3.org/2000/svg">
<g opacity="0.1">
<path opacity="0.1" d="M128 124.979V128H124.979" stroke="#20263C" stroke-miterlimit="10"/>
<path opacity="0.1" d="M119.17 128H5.93019" stroke="#20263C" stroke-miterlimit="10" stroke-dasharray="5.77 5.77"/>
<path opacity="0.1" d="M3.02053 128H0V124.979" stroke="#20263C" stroke-miterlimit="10"/>
<path opacity="0.1" d="M0 119.169V5.92071" stroke="#20263C" stroke-miterlimit="10" stroke-dasharray="5.77 5.77"/>
<path opacity="0.1" d="M0 3.02077V0H3.02053" stroke="#20263C" stroke-miterlimit="10"/>
<path opacity="0.1" d="M8.83004 0H122.07" stroke="#20263C" stroke-miterlimit="10" stroke-dasharray="5.77 5.77"/>
<path opacity="0.1" d="M124.979 0H128V3.02077" stroke="#20263C" stroke-miterlimit="10"/>
<path opacity="0.1" d="M128 8.82065V122.079" stroke="#20263C" stroke-miterlimit="10" stroke-dasharray="5.77 5.77"/>
</g>
<path d="M64.952 48.9771C66.9277 48.9789 68.8809 49.408 70.684 50.2361C72.4872 51.0643 74.1 52.273 75.4171 53.7834L79.5406 49.9705C76.9012 46.9599 73.4384 44.8351 69.6039 43.8737C65.7695 42.9122 61.7417 43.1586 58.0457 44.5807C54.3499 46.0028 51.1577 48.5345 48.8859 51.8454C46.6139 55.1565 45.3679 59.093 45.3101 63.1414C45.2523 67.1897 46.3856 71.162 48.562 74.5398C50.7385 77.9176 53.857 80.544 57.5107 82.0765C61.1643 83.6088 65.1835 83.976 69.0438 83.1301C72.9039 82.2842 76.426 80.2644 79.1502 77.3344L75.1203 73.4092C73.515 75.1311 71.5187 76.4182 69.31 77.1553C67.1013 77.8925 64.7488 78.0568 62.4631 77.6335C60.1772 77.2103 58.0294 76.2128 56.2114 74.73C54.3933 73.2472 52.9618 71.3255 52.0448 69.1365C51.1278 66.9476 50.7539 64.5597 50.9564 62.1863C51.1591 59.8129 51.9319 57.528 53.2057 55.5359C54.4797 53.5437 56.215 51.9064 58.2567 50.7703C60.2982 49.634 62.5825 49.0345 64.9053 49.0252L64.952 48.9771Z" fill="#414042"/>
<path d="M46.3148 44.2133L42.2465 40.2769C39.0684 43.313 36.5466 46.9218 34.8257 50.8962C33.1049 54.8705 32.219 59.1321 32.219 63.4361C32.219 67.7401 33.1049 72.0017 34.8257 75.976C36.5466 79.9505 39.0684 83.5593 42.2465 86.5953L46.3148 82.659C43.6651 80.1454 41.5614 77.152 40.1255 73.8522C38.6898 70.5525 37.9504 67.0121 37.9504 63.4361C37.9504 59.8601 38.6898 56.3197 40.1255 53.02C41.5614 49.7202 43.6651 46.7269 46.3148 44.2133Z" fill="#414042"/>
<path d="M84.5748 36.7278C79.0278 32.4835 72.3251 30.199 65.4448 30.2077V35.9229C71.1219 35.9174 76.6536 37.7949 81.2399 41.2838L84.5748 36.7278Z" fill="#414042"/>
<path d="M65.4448 91.0264V96.6646C71.8808 96.6718 78.1791 94.7952 83.568 91.2646L80.4024 86.5953C75.9492 89.4943 70.7531 91.0337 65.4448 91.0264Z" fill="#414042"/>
<path d="M65.4448 84.0628C61.085 84.0599 56.8313 82.7559 53.2596 80.3274C49.6878 77.8988 46.9706 74.4627 45.4754 70.4846L40.2737 72.831C42.2325 77.7714 45.686 82.0195 50.1793 85.0157C54.6725 88.012 59.9947 89.6158 65.4448 89.6161V84.0628Z" fill="#414042"/>
<path d="M44.8216 62.4292C45.1593 57.1323 47.4785 52.1635 51.3084 48.5311C55.1384 44.8987 60.1923 42.8746 65.4448 42.8694V37.2561C58.7184 37.2559 52.2494 39.8691 47.3766 44.5548C42.5038 49.2406 39.6002 55.6402 39.2669 62.4292H44.8216Z" fill="#414042"/>
<g filter="url(#filter0_d_0_1)">
<path d="M65.7155 71V57.04H67.3955V69.52H73.3355V71H65.7155ZM79.7597 71.24C79.053 71.24 78.413 71.1133 77.8397 70.86C77.2797 70.6067 76.793 70.2467 76.3797 69.78C75.9797 69.3 75.6664 68.7333 75.4397 68.08C75.2264 67.4133 75.1197 66.6667 75.1197 65.84C75.1197 65.0267 75.2264 64.2867 75.4397 63.62C75.6664 62.9533 75.9797 62.3867 76.3797 61.92C76.793 61.44 77.2797 61.0733 77.8397 60.82C78.413 60.5667 79.053 60.44 79.7597 60.44C80.453 60.44 81.073 60.5667 81.6197 60.82C82.1664 61.0733 82.633 61.4267 83.0197 61.88C83.4064 62.32 83.6997 62.8467 83.8997 63.46C84.113 64.0733 84.2197 64.7467 84.2197 65.48V66.24H76.7997V66.72C76.7997 67.16 76.8664 67.5733 76.9997 67.96C77.1464 68.3333 77.3464 68.66 77.5997 68.94C77.8664 69.22 78.1864 69.44 78.5597 69.6C78.9464 69.76 79.3797 69.84 79.8597 69.84C80.513 69.84 81.0797 69.6867 81.5597 69.38C82.053 69.0733 82.433 68.6333 82.6997 68.06L83.8397 68.88C83.5064 69.5867 82.9864 70.16 82.2797 70.6C81.573 71.0267 80.733 71.24 79.7597 71.24ZM79.7597 61.78C79.3197 61.78 78.9197 61.86 78.5597 62.02C78.1997 62.1667 77.8864 62.38 77.6197 62.66C77.3664 62.94 77.1664 63.2733 77.0197 63.66C76.873 64.0333 76.7997 64.4467 76.7997 64.9V65.04H82.4997V64.82C82.4997 63.9 82.2464 63.1667 81.7397 62.62C81.2464 62.06 80.5864 61.78 79.7597 61.78ZM91.2363 71.24C90.5296 71.24 89.8896 71.1133 89.3163 70.86C88.7563 70.6067 88.2696 70.2467 87.8563 69.78C87.4563 69.3 87.1429 68.7333 86.9163 68.08C86.7029 67.4133 86.5963 66.6667 86.5963 65.84C86.5963 65.0267 86.7029 64.2867 86.9163 63.62C87.1429 62.9533 87.4563 62.3867 87.8563 61.92C88.2696 61.44 88.7563 61.0733 89.3163 60.82C89.8896 60.5667 90.5296 60.44 91.2363 60.44C91.9296 60.44 92.5496 60.5667 93.0963 60.82C93.6429 61.0733 94.1096 61.4267 94.4963 61.88C94.8829 62.32 95.1763 62.8467 95.3763 63.46C95.5896 64.0733 95.6963 64.7467 95.6963 65.48V66.24H88.2763V66.72C88.2763 67.16 88.3429 67.5733 88.4763 67.96C88.6229 68.3333 88.8229 68.66 89.0763 68.94C89.3429 69.22 89.6629 69.44 90.0363 69.6C90.4229 69.76 90.8563 69.84 91.3363 69.84C91.9896 69.84 92.5563 69.6867 93.0363 69.38C93.5296 69.0733 93.9096 68.6333 94.1763 68.06L95.3163 68.88C94.9829 69.5867 94.4629 70.16 93.7563 70.6C93.0496 71.0267 92.2096 71.24 91.2363 71.24ZM91.2363 61.78C90.7963 61.78 90.3963 61.86 90.0363 62.02C89.6763 62.1667 89.3629 62.38 89.0963 62.66C88.8429 62.94 88.6429 63.2733 88.4963 63.66C88.3496 64.0333 88.2763 64.4467 88.2763 64.9V65.04H93.9763V64.82C93.9763 63.9 93.7229 63.1667 93.2163 62.62C92.7229 62.06 92.0629 61.78 91.2363 61.78ZM101.113 71C100.553 71 100.126 70.8467 99.8328 70.54C99.5528 70.22 99.4128 69.8067 99.4128 69.3V62.08H97.7128V60.68H98.6728C99.0195 60.68 99.2528 60.6133 99.3728 60.48C99.5061 60.3333 99.5728 60.0867 99.5728 59.74V57.82H101.013V60.68H103.273V62.08H101.013V69.6H103.113V71H101.113Z" fill="black"/>
<path d="M65.7155 71H64.7155V72H65.7155V71ZM65.7155 57.04V56.04H64.7155V57.04H65.7155ZM67.3955 57.04H68.3955V56.04H67.3955V57.04ZM67.3955 69.52H66.3955V70.52H67.3955V69.52ZM73.3355 69.52H74.3355V68.52H73.3355V69.52ZM73.3355 71V72H74.3355V71H73.3355ZM66.7155 71V57.04H64.7155V71H66.7155ZM65.7155 58.04H67.3955V56.04H65.7155V58.04ZM66.3955 57.04V69.52H68.3955V57.04H66.3955ZM67.3955 70.52H73.3355V68.52H67.3955V70.52ZM72.3355 69.52V71H74.3355V69.52H72.3355ZM73.3355 70H65.7155V72H73.3355V70ZM77.8397 70.86L77.4275 71.7711L77.4355 71.7747L77.8397 70.86ZM76.3797 69.78L75.6115 70.4202L75.6211 70.4318L75.6311 70.443L76.3797 69.78ZM75.4397 68.08L74.4873 68.3848L74.491 68.3963L74.4949 68.4078L75.4397 68.08ZM75.4397 63.62L74.4929 63.2981L74.49 63.3066L74.4873 63.3152L75.4397 63.62ZM76.3797 61.92L75.6219 61.2675L75.6204 61.2692L76.3797 61.92ZM77.8397 60.82L77.4355 59.9053L77.4275 59.9089L77.8397 60.82ZM81.6197 60.82L81.1992 61.7273L81.6197 60.82ZM83.0197 61.88L82.2589 62.5289L82.2636 62.5346L82.2685 62.5401L83.0197 61.88ZM83.8997 63.46L82.949 63.77L82.952 63.7793L82.9552 63.7885L83.8997 63.46ZM84.2197 66.24V67.24H85.2197V66.24H84.2197ZM76.7997 66.24V65.24H75.7997V66.24H76.7997ZM76.9997 67.96L76.0543 68.286L76.0612 68.306L76.0689 68.3257L76.9997 67.96ZM77.5997 68.94L76.8582 69.6109L76.8667 69.6204L76.8755 69.6297L77.5997 68.94ZM78.5597 69.6L78.1657 70.5192L78.1773 70.524L78.5597 69.6ZM81.5597 69.38L81.0317 68.5306L81.0213 68.5373L81.5597 69.38ZM82.6997 68.06L83.2836 67.2482L82.3026 66.5426L81.793 67.6383L82.6997 68.06ZM83.8397 68.88L84.7441 69.3066L85.0991 68.5541L84.4236 68.0682L83.8397 68.88ZM82.2797 70.6L82.7966 71.4561L82.8082 71.4489L82.2797 70.6ZM78.5597 62.02L78.937 62.9461L78.9515 62.9402L78.9658 62.9338L78.5597 62.02ZM77.6197 62.66L76.8955 61.9703L76.8867 61.9796L76.8782 61.9891L77.6197 62.66ZM77.0197 63.66L77.9505 64.0257L77.9547 64.0147L77.0197 63.66ZM76.7997 65.04H75.7997V66.04H76.7997V65.04ZM82.4997 65.04V66.04H83.4997V65.04H82.4997ZM81.7397 62.62L80.9893 63.281L80.9977 63.2905L81.0063 63.2998L81.7397 62.62ZM79.7597 70.24C79.1745 70.24 78.6746 70.1356 78.2439 69.9453L77.4355 71.7747C78.1515 72.091 78.9316 72.24 79.7597 72.24V70.24ZM78.2519 69.9489C77.8221 69.7545 77.4496 69.4797 77.1283 69.117L75.6311 70.443C76.1365 71.0136 76.7373 71.4589 77.4275 71.7711L78.2519 69.9489ZM77.1479 69.1398C76.8329 68.7618 76.5758 68.3038 76.3844 67.7522L74.4949 68.4078C74.7569 69.1629 75.1264 69.8382 75.6115 70.4202L77.1479 69.1398ZM76.3921 67.7752C76.2154 67.223 76.1197 66.5814 76.1197 65.84H74.1197C74.1197 66.7519 74.2373 67.6036 74.4873 68.3848L76.3921 67.7752ZM76.1197 65.84C76.1197 65.1137 76.2149 64.4785 76.3921 63.9248L74.4873 63.3152C74.2378 64.0949 74.1197 64.9396 74.1197 65.84H76.1197ZM76.3865 63.9419C76.578 63.3784 76.833 62.9277 77.1389 62.5708L75.6204 61.2692C75.1264 61.8456 74.7547 62.5283 74.4929 63.2981L76.3865 63.9419ZM77.1375 62.5725C77.4588 62.1994 77.8286 61.9226 78.2519 61.7311L77.4275 59.9089C76.7308 60.2241 76.1273 60.6806 75.6219 61.2675L77.1375 62.5725ZM78.2439 61.7347C78.6746 61.5444 79.1745 61.44 79.7597 61.44V59.44C78.9316 59.44 78.1515 59.589 77.4355 59.9053L78.2439 61.7347ZM79.7597 61.44C80.3296 61.44 80.8028 61.5436 81.1992 61.7273L82.0401 59.9127C81.3433 59.5897 80.5764 59.44 79.7597 59.44V61.44ZM81.1992 61.7273C81.6167 61.9208 81.9668 62.1865 82.2589 62.5289L83.7805 61.2311C83.2993 60.6668 82.7161 60.2259 82.0401 59.9127L81.1992 61.7273ZM82.2685 62.5401C82.5569 62.8683 82.7867 63.2726 82.949 63.77L84.8504 63.15C84.6126 62.4208 84.2558 61.7717 83.7709 61.2199L82.2685 62.5401ZM82.9552 63.7885C83.1274 64.2835 83.2197 64.8442 83.2197 65.48H85.2197C85.2197 64.6491 85.0987 63.8631 84.8442 63.1315L82.9552 63.7885ZM83.2197 65.48V66.24H85.2197V65.48H83.2197ZM84.2197 65.24H76.7997V67.24H84.2197V65.24ZM75.7997 66.24V66.72H77.7997V66.24H75.7997ZM75.7997 66.72C75.7997 67.2625 75.8822 67.7868 76.0543 68.286L77.9451 67.634C77.8505 67.3599 77.7997 67.0575 77.7997 66.72H75.7997ZM76.0689 68.3257C76.257 68.8043 76.5189 69.236 76.8582 69.6109L78.3412 68.2691C78.1738 68.084 78.0357 67.8624 77.9304 67.5943L76.0689 68.3257ZM76.8755 69.6297C77.2403 70.0126 77.6744 70.3085 78.1658 70.5191L78.9536 68.6809C78.6984 68.5715 78.4924 68.4274 78.3238 68.2503L76.8755 69.6297ZM78.1773 70.524C78.7017 70.741 79.2676 70.84 79.8597 70.84V68.84C79.4918 68.84 79.191 68.779 78.942 68.676L78.1773 70.524ZM79.8597 70.84C80.6751 70.84 81.4347 70.6465 82.0981 70.2227L81.0213 68.5373C80.7247 68.7268 80.351 68.84 79.8597 68.84V70.84ZM82.0876 70.2293C82.7607 69.8109 83.2653 69.2151 83.6064 68.4817L81.793 67.6383C81.6007 68.0516 81.3453 68.3358 81.0318 68.5307L82.0876 70.2293ZM82.1158 68.8718L83.2558 69.6918L84.4236 68.0682L83.2836 67.2482L82.1158 68.8718ZM82.9353 68.4534C82.6894 68.9745 82.3057 69.4058 81.7511 69.7511L82.8082 71.4489C83.667 70.9142 84.3233 70.1988 84.7441 69.3066L82.9353 68.4534ZM81.7628 69.7439C81.2381 70.0607 80.5838 70.24 79.7597 70.24V72.24C80.8822 72.24 81.9079 71.9926 82.7966 71.4561L81.7628 69.7439ZM79.7597 60.78C79.1962 60.78 78.6556 60.8831 78.1535 61.1062L78.9658 62.9338C79.1838 62.8369 79.4432 62.78 79.7597 62.78V60.78ZM78.1824 61.0939C77.6921 61.2937 77.2603 61.5873 76.8955 61.9703L78.3438 63.3497C78.5124 63.1727 78.7073 63.0397 78.937 62.9461L78.1824 61.0939ZM76.8782 61.9891C76.5336 62.37 76.2713 62.8132 76.0847 63.3053L77.9547 64.0147C78.0614 63.7334 78.1992 63.51 78.3612 63.3309L76.8782 61.9891ZM76.0889 63.2943C75.8909 63.7983 75.7997 64.3377 75.7997 64.9H77.7997C77.7997 64.5556 77.8551 64.2683 77.9504 64.0257L76.0889 63.2943ZM75.7997 64.9V65.04H77.7997V64.9H75.7997ZM76.7997 66.04H82.4997V64.04H76.7997V66.04ZM83.4997 65.04V64.82H81.4997V65.04H83.4997ZM83.4997 64.82C83.4997 63.7098 83.1891 62.7127 82.4731 61.9402L81.0063 63.2998C81.3037 63.6206 81.4997 64.0902 81.4997 64.82H83.4997ZM82.49 61.959C81.7851 61.1588 80.8389 60.78 79.7597 60.78V62.78C80.3338 62.78 80.7076 62.9612 80.9893 63.281L82.49 61.959ZM89.3162 70.86L88.9041 71.7711L88.9121 71.7747L89.3162 70.86ZM87.8563 69.78L87.088 70.4202L87.0977 70.4318L87.1077 70.443L87.8563 69.78ZM86.9163 68.08L85.9638 68.3848L85.9675 68.3963L85.9715 68.4078L86.9163 68.08ZM86.9163 63.62L85.9695 63.2981L85.9666 63.3066L85.9638 63.3152L86.9163 63.62ZM87.8563 61.92L87.0985 61.2675L87.097 61.2692L87.8563 61.92ZM89.3162 60.82L88.9121 59.9053L88.9041 59.9089L89.3162 60.82ZM93.0962 60.82L92.6758 61.7273L93.0962 60.82ZM94.4963 61.88L93.7354 62.5289L93.7402 62.5346L93.7451 62.5401L94.4963 61.88ZM95.3763 63.46L94.4255 63.77L94.4285 63.7793L94.4318 63.7885L95.3763 63.46ZM95.6963 66.24V67.24H96.6963V66.24H95.6963ZM88.2763 66.24V65.24H87.2763V66.24H88.2763ZM88.4762 67.96L87.5309 68.286L87.5378 68.306L87.5455 68.3257L88.4762 67.96ZM89.0763 68.94L88.3347 69.6109L88.3433 69.6204L88.3521 69.6297L89.0763 68.94ZM90.0363 69.6L89.6423 70.5192L89.6539 70.524L90.0363 69.6ZM93.0363 69.38L92.5083 68.5306L92.4979 68.5373L93.0363 69.38ZM94.1763 68.06L94.7602 67.2482L93.7792 66.5426L93.2695 67.6383L94.1763 68.06ZM95.3162 68.88L96.2207 69.3066L96.5757 68.5541L95.9002 68.0682L95.3162 68.88ZM93.7563 70.6L94.2732 71.4561L94.2848 71.4489L93.7563 70.6ZM90.0363 62.02L90.4135 62.9461L90.4281 62.9402L90.4424 62.9338L90.0363 62.02ZM89.0963 62.66L88.3721 61.9703L88.3633 61.9796L88.3547 61.9891L89.0963 62.66ZM88.4963 63.66L89.4271 64.0257L89.4312 64.0147L88.4963 63.66ZM88.2763 65.04H87.2763V66.04H88.2763V65.04ZM93.9762 65.04V66.04H94.9762V65.04H93.9762ZM93.2163 62.62L92.4659 63.281L92.4742 63.2905L92.4828 63.2998L93.2163 62.62ZM91.2362 70.24C90.651 70.24 90.1511 70.1356 89.7204 69.9453L88.9121 71.7747C89.628 72.091 90.4081 72.24 91.2362 72.24V70.24ZM89.7284 69.9489C89.2987 69.7545 88.9261 69.4797 88.6048 69.117L87.1077 70.443C87.613 71.0136 88.2138 71.4589 88.9041 71.7711L89.7284 69.9489ZM88.6245 69.1398C88.3095 68.7618 88.0524 68.3038 87.861 67.7522L85.9715 68.4078C86.2335 69.1629 86.603 69.8382 87.088 70.4202L88.6245 69.1398ZM87.8687 67.7752C87.692 67.223 87.5963 66.5814 87.5963 65.84H85.5963C85.5963 66.7519 85.7139 67.6036 85.9638 68.3848L87.8687 67.7752ZM87.5963 65.84C87.5963 65.1137 87.6915 64.4785 87.8687 63.9248L85.9638 63.3152C85.7143 64.0949 85.5963 64.9396 85.5963 65.84H87.5963ZM87.863 63.9419C88.0546 63.3784 88.3096 62.9277 88.6155 62.5708L87.097 61.2692C86.6029 61.8456 86.2312 62.5283 85.9695 63.2981L87.863 63.9419ZM88.614 62.5725C88.9353 62.1994 89.3052 61.9226 89.7284 61.7311L88.9041 59.9089C88.2073 60.2241 87.6038 60.6806 87.0985 61.2675L88.614 62.5725ZM89.7204 61.7347C90.1511 61.5444 90.651 61.44 91.2362 61.44V59.44C90.4081 59.44 89.628 59.589 88.9121 59.9053L89.7204 61.7347ZM91.2362 61.44C91.8062 61.44 92.2794 61.5436 92.6758 61.7273L93.5167 59.9127C92.8198 59.5897 92.053 59.44 91.2362 59.44V61.44ZM92.6758 61.7273C93.0932 61.9208 93.4433 62.1865 93.7354 62.5289L95.2571 61.2311C94.7758 60.6668 94.1926 60.2259 93.5167 59.9127L92.6758 61.7273ZM93.7451 62.5401C94.0335 62.8683 94.2633 63.2726 94.4255 63.77L96.327 63.15C96.0892 62.4208 95.7324 61.7717 95.2474 61.2199L93.7451 62.5401ZM94.4318 63.7885C94.6039 64.2835 94.6963 64.8442 94.6963 65.48H96.6963C96.6963 64.6491 96.5752 63.8631 96.3207 63.1315L94.4318 63.7885ZM94.6963 65.48V66.24H96.6963V65.48H94.6963ZM95.6963 65.24H88.2763V67.24H95.6963V65.24ZM87.2763 66.24V66.72H89.2763V66.24H87.2763ZM87.2763 66.72C87.2763 67.2625 87.3587 67.7868 87.5309 68.286L89.4216 67.634C89.3271 67.3599 89.2763 67.0575 89.2763 66.72H87.2763ZM87.5455 68.3257C87.7335 68.8043 87.9955 69.236 88.3347 69.6109L89.8178 68.2691C89.6504 68.084 89.5123 67.8624 89.407 67.5943L87.5455 68.3257ZM88.3521 69.6297C88.7169 70.0126 89.1509 70.3085 89.6423 70.5191L90.4302 68.6809C90.1749 68.5715 89.969 68.4274 89.8004 68.2503L88.3521 69.6297ZM89.6539 70.524C90.1783 70.741 90.7442 70.84 91.3363 70.84V68.84C90.9683 68.84 90.6675 68.779 90.4186 68.676L89.6539 70.524ZM91.3363 70.84C92.1516 70.84 92.9112 70.6465 93.5746 70.2227L92.4979 68.5373C92.2013 68.7268 91.8275 68.84 91.3363 68.84V70.84ZM93.5642 70.2293C94.2373 69.8109 94.7419 69.2151 95.083 68.4817L93.2695 67.6383C93.0773 68.0516 92.8219 68.3358 92.5083 68.5307L93.5642 70.2293ZM93.5923 68.8718L94.7323 69.6918L95.9002 68.0682L94.7602 67.2482L93.5923 68.8718ZM94.4118 68.4534C94.166 68.9745 93.7822 69.4058 93.2277 69.7511L94.2848 71.4489C95.1436 70.9142 95.7998 70.1988 96.2207 69.3066L94.4118 68.4534ZM93.2394 69.7439C92.7147 70.0607 92.0604 70.24 91.2362 70.24V72.24C92.3588 72.24 93.3845 71.9926 94.2731 71.4561L93.2394 69.7439ZM91.2362 60.78C90.6727 60.78 90.1322 60.8831 89.6301 61.1062L90.4424 62.9338C90.6603 62.8369 90.9198 62.78 91.2362 62.78V60.78ZM89.659 61.0939C89.1686 61.2937 88.7369 61.5873 88.3721 61.9703L89.8204 63.3497C89.9889 63.1727 90.1839 63.0397 90.4135 62.9461L89.659 61.0939ZM88.3547 61.9891C88.0101 62.37 87.7479 62.8132 87.5613 63.3053L89.4312 64.0147C89.5379 63.7334 89.6757 63.51 89.8378 63.3309L88.3547 61.9891ZM87.5655 63.2943C87.3675 63.7983 87.2763 64.3377 87.2763 64.9H89.2763C89.2763 64.5556 89.3317 64.2683 89.427 64.0257L87.5655 63.2943ZM87.2763 64.9V65.04H89.2763V64.9H87.2763ZM88.2763 66.04H93.9762V64.04H88.2763V66.04ZM94.9762 65.04V64.82H92.9762V65.04H94.9762ZM94.9762 64.82C94.9762 63.7098 94.6656 62.7127 93.9497 61.9402L92.4828 63.2998C92.7802 63.6206 92.9762 64.0902 92.9762 64.82H94.9762ZM93.9666 61.959C93.2617 61.1588 92.3155 60.78 91.2362 60.78V62.78C91.8103 62.78 92.1841 62.9612 92.4659 63.281L93.9666 61.959ZM99.8328 70.54L99.0802 71.1985L99.0948 71.2152L99.1102 71.2312L99.8328 70.54ZM99.4128 62.08H100.413V61.08H99.4128V62.08ZM97.7128 62.08H96.7128V63.08H97.7128V62.08ZM97.7128 60.68V59.68H96.7128V60.68H97.7128ZM99.3728 60.48L98.6329 59.8073L98.6295 59.811L99.3728 60.48ZM99.5728 57.82V56.82H98.5728V57.82H99.5728ZM101.013 57.82H102.013V56.82H101.013V57.82ZM101.013 60.68H100.013V61.68H101.013V60.68ZM103.273 60.68H104.273V59.68H103.273V60.68ZM103.273 62.08V63.08H104.273V62.08H103.273ZM101.013 62.08V61.08H100.013V62.08H101.013ZM101.013 69.6H100.013V70.6H101.013V69.6ZM103.113 69.6H104.113V68.6H103.113V69.6ZM103.113 71V72H104.113V71H103.113ZM101.113 70C100.735 70 100.605 69.9009 100.555 69.8488L99.1102 71.2312C99.647 71.7925 100.371 72 101.113 72V70ZM100.585 69.8815C100.494 69.7774 100.413 69.6132 100.413 69.3H98.4128C98.4128 70.0001 98.6113 70.6626 99.0802 71.1985L100.585 69.8815ZM100.413 69.3V62.08H98.4128V69.3H100.413ZM99.4128 61.08H97.7128V63.08H99.4128V61.08ZM98.7128 62.08V60.68H96.7128V62.08H98.7128ZM97.7128 61.68H98.6728V59.68H97.7128V61.68ZM98.6728 61.68C99.0659 61.68 99.6912 61.6211 100.116 61.149L98.6295 59.811C98.7321 59.6971 98.8309 59.6691 98.8331 59.6685C98.8366 59.6675 98.8261 59.6707 98.7974 59.674C98.769 59.6773 98.7282 59.68 98.6728 59.68V61.68ZM100.113 61.1527C100.5 60.7262 100.573 60.1653 100.573 59.74H98.5728C98.5728 59.7951 98.5701 59.8378 98.5666 59.8696C98.563 59.9015 98.5589 59.9187 98.5574 59.9241C98.5539 59.9371 98.5664 59.8804 98.6329 59.8073L100.113 61.1527ZM100.573 59.74V57.82H98.5728V59.74H100.573ZM99.5728 58.82H101.013V56.82H99.5728V58.82ZM100.013 57.82V60.68H102.013V57.82H100.013ZM101.013 61.68H103.273V59.68H101.013V61.68ZM102.273 60.68V62.08H104.273V60.68H102.273ZM103.273 61.08H101.013V63.08H103.273V61.08ZM100.013 62.08V69.6H102.013V62.08H100.013ZM101.013 70.6H103.113V68.6H101.013V70.6ZM102.113 69.6V71H104.113V69.6H102.113ZM103.113 70H101.113V72H103.113V70Z" fill="#1E1E1E"/>
</g>
<defs>
<filter id="filter0_d_0_1" x="61.7155" y="57.04" width="45.5573" height="22.2" filterUnits="userSpaceOnUse" color-interpolation-filters="sRGB">
<feFlood flood-opacity="0" result="BackgroundImageFix"/>
<feColorMatrix in="SourceAlpha" type="matrix" values="0 0 0 0 0 0 0 0 0 0 0 0 0 0 0 0 0 0 127 0" result="hardAlpha"/>
<feOffset dy="4"/>
<feGaussianBlur stdDeviation="2"/>
<feComposite in2="hardAlpha" operator="out"/>
<feColorMatrix type="matrix" values="0 0 0 0 0 0 0 0 0 0 0 0 0 0 0 0 0 0 0.25 0"/>
<feBlend mode="normal" in2="BackgroundImageFix" result="effect1_dropShadow_0_1"/>
<feBlend mode="normal" in="SourceGraphic" in2="effect1_dropShadow_0_1" result="shape"/>
</filter>
</defs>
</svg>
