<svg width="48" height="48" viewBox="0 0 48 48" fill="none" xmlns="http://www.w3.org/2000/svg">
<g opacity="0.1">
<path opacity="0.1" d="M48 46.8672V48H46.8673" stroke="#20263C" stroke-miterlimit="10"/>
<path opacity="0.1" d="M44.6887 48H2.22382" stroke="#20263C" stroke-miterlimit="10" stroke-dasharray="5.77 5.77"/>
<path opacity="0.1" d="M1.1327 48H0V46.8672" stroke="#20263C" stroke-miterlimit="10"/>
<path opacity="0.1" d="M0 44.6885V2.22027" stroke="#20263C" stroke-miterlimit="10" stroke-dasharray="5.77 5.77"/>
<path opacity="0.1" d="M0 1.13279V0H1.1327" stroke="#20263C" stroke-miterlimit="10"/>
<path opacity="0.1" d="M3.31126 0H45.7761" stroke="#20263C" stroke-miterlimit="10" stroke-dasharray="5.77 5.77"/>
<path opacity="0.1" d="M46.8673 0H48V1.13279" stroke="#20263C" stroke-miterlimit="10"/>
<path opacity="0.1" d="M48 3.30774V45.7797" stroke="#20263C" stroke-miterlimit="10" stroke-dasharray="5.77 5.77"/>
</g>
<path d="M24.357 18.3664C25.0979 18.3671 25.8303 18.528 26.5065 18.8385C27.1827 19.1491 27.7875 19.6024 28.2814 20.1688L29.8277 18.7389C28.838 17.6099 27.5394 16.8132 26.1015 16.4527C24.6636 16.0921 23.1531 16.1845 21.7672 16.7178C20.3812 17.251 19.1841 18.2004 18.3322 19.442C17.4802 20.6837 17.013 22.1599 16.9913 23.678C16.9696 25.1961 17.3946 26.6858 18.2107 27.9524C19.0269 29.2191 20.1964 30.204 21.5665 30.7787C22.9366 31.3533 24.4438 31.491 25.8914 31.1738C27.339 30.8566 28.6597 30.0992 29.6813 29.0004L28.1701 27.5284C27.5681 28.1742 26.8195 28.6568 25.9913 28.9333C25.163 29.2097 24.2808 29.2713 23.4237 29.1126C22.5665 28.9539 21.761 28.5798 21.0793 28.0237C20.3975 27.4677 19.8607 26.747 19.5168 25.9262C19.1729 25.1053 19.0327 24.2099 19.1087 23.3199C19.1847 22.4298 19.4745 21.573 19.9522 20.826C20.4299 20.0789 21.0806 19.4649 21.8463 19.0388C22.6118 18.6128 23.4684 18.3879 24.3395 18.3844L24.357 18.3664Z" fill="#414042"/>
<path d="M17.3681 16.58L15.8425 15.1038C14.6507 16.2424 13.705 17.5957 13.0596 19.0861C12.4143 20.5764 12.0821 22.1745 12.0821 23.7885C12.0821 25.4025 12.4143 27.0006 13.0596 28.491C13.705 29.9814 14.6507 31.3347 15.8425 32.4733L17.3681 30.9971C16.3744 30.0545 15.5855 28.932 15.0471 27.6946C14.5087 26.4572 14.2314 25.1295 14.2314 23.7885C14.2314 22.4476 14.5087 21.1199 15.0471 19.8825C15.5855 18.6451 16.3744 17.5226 17.3681 16.58Z" fill="#414042"/>
<path d="M31.7156 13.7729C29.6354 12.1813 27.1219 11.3246 24.5418 11.3279V13.4711C26.6707 13.469 28.7451 14.1731 30.465 15.4814L31.7156 13.7729Z" fill="#414042"/>
<path d="M24.5418 34.1349V36.2492C26.9553 36.2519 29.3172 35.5482 31.338 34.2242L30.1509 32.4733C28.481 33.5604 26.5324 34.1376 24.5418 34.1349Z" fill="#414042"/>
<path d="M24.5418 31.5236C22.9069 31.5225 21.3117 31.0335 19.9724 30.1228C18.6329 29.212 17.614 27.9235 17.0533 26.4317L15.1027 27.3116C15.8372 29.1643 17.1323 30.7573 18.8172 31.8809C20.5022 33.0045 22.498 33.6059 24.5418 33.606V31.5236Z" fill="#414042"/>
<path d="M16.8081 23.411C16.9348 21.4246 17.8044 19.5613 19.2407 18.1991C20.6769 16.837 22.5721 16.078 24.5418 16.076V13.9711C22.0194 13.971 19.5935 14.9509 17.7662 16.7081C15.9389 18.4652 14.8501 20.8651 14.7251 23.411H16.8081Z" fill="#414042"/>
<g filter="url(#filter0_d_0_1)">
<path d="M24.2827 27V20.02H25.1227V26.26H28.0927V27H24.2827ZM30.3548 27.12C30.0015 27.12 29.6815 27.0567 29.3948 26.93C29.1148 26.8033 28.8715 26.6233 28.6648 26.39C28.4648 26.15 28.3082 25.8667 28.1948 25.54C28.0882 25.2067 28.0348 24.8333 28.0348 24.42C28.0348 24.0133 28.0882 23.6433 28.1948 23.31C28.3082 22.9767 28.4648 22.6933 28.6648 22.46C28.8715 22.22 29.1148 22.0367 29.3948 21.91C29.6815 21.7833 30.0015 21.72 30.3548 21.72C30.7015 21.72 31.0115 21.7833 31.2848 21.91C31.5582 22.0367 31.7915 22.2133 31.9848 22.44C32.1782 22.66 32.3248 22.9233 32.4248 23.23C32.5315 23.5367 32.5848 23.8733 32.5848 24.24V24.62H28.8748V24.86C28.8748 25.08 28.9082 25.2867 28.9748 25.48C29.0482 25.6667 29.1482 25.83 29.2748 25.97C29.4082 26.11 29.5682 26.22 29.7548 26.3C29.9482 26.38 30.1648 26.42 30.4048 26.42C30.7315 26.42 31.0148 26.3433 31.2548 26.19C31.5015 26.0367 31.6915 25.8167 31.8248 25.53L32.3948 25.94C32.2282 26.2933 31.9682 26.58 31.6148 26.8C31.2615 27.0133 30.8415 27.12 30.3548 27.12ZM30.3548 22.39C30.1348 22.39 29.9348 22.43 29.7548 22.51C29.5748 22.5833 29.4182 22.69 29.2848 22.83C29.1582 22.97 29.0582 23.1367 28.9848 23.33C28.9115 23.5167 28.8748 23.7233 28.8748 23.95V24.02H31.7248V23.91C31.7248 23.45 31.5982 23.0833 31.3448 22.81C31.0982 22.53 30.7682 22.39 30.3548 22.39ZM35.1431 27.12C34.7898 27.12 34.4698 27.0567 34.1831 26.93C33.9031 26.8033 33.6598 26.6233 33.4531 26.39C33.2531 26.15 33.0965 25.8667 32.9831 25.54C32.8765 25.2067 32.8231 24.8333 32.8231 24.42C32.8231 24.0133 32.8765 23.6433 32.9831 23.31C33.0965 22.9767 33.2531 22.6933 33.4531 22.46C33.6598 22.22 33.9031 22.0367 34.1831 21.91C34.4698 21.7833 34.7898 21.72 35.1431 21.72C35.4898 21.72 35.7998 21.7833 36.0731 21.91C36.3465 22.0367 36.5798 22.2133 36.7731 22.44C36.9665 22.66 37.1131 22.9233 37.2131 23.23C37.3198 23.5367 37.3731 23.8733 37.3731 24.24V24.62H33.6631V24.86C33.6631 25.08 33.6965 25.2867 33.7631 25.48C33.8365 25.6667 33.9365 25.83 34.0631 25.97C34.1965 26.11 34.3565 26.22 34.5431 26.3C34.7365 26.38 34.9531 26.42 35.1931 26.42C35.5198 26.42 35.8031 26.3433 36.0431 26.19C36.2898 26.0367 36.4798 25.8167 36.6131 25.53L37.1831 25.94C37.0165 26.2933 36.7565 26.58 36.4031 26.8C36.0498 27.0133 35.6298 27.12 35.1431 27.12ZM35.1431 22.39C34.9231 22.39 34.7231 22.43 34.5431 22.51C34.3631 22.5833 34.2065 22.69 34.0731 22.83C33.9465 22.97 33.8465 23.1367 33.7731 23.33C33.6998 23.5167 33.6631 23.7233 33.6631 23.95V24.02H36.5131V23.91C36.5131 23.45 36.3865 23.0833 36.1331 22.81C35.8865 22.53 35.5565 22.39 35.1431 22.39ZM39.1314 27C38.8514 27 38.6381 26.9233 38.4914 26.77C38.3514 26.61 38.2814 26.4033 38.2814 26.15V22.54H37.4314V21.84H37.9114C38.0847 21.84 38.2014 21.8067 38.2614 21.74C38.3281 21.6667 38.3614 21.5433 38.3614 21.37V20.41H39.0814V21.84H40.2114V22.54H39.0814V26.3H40.1314V27H39.1314Z" fill="black"/>
</g>
<defs>
<filter id="filter0_d_0_1" x="20.2827" y="20.02" width="23.9287" height="15.1" filterUnits="userSpaceOnUse" color-interpolation-filters="sRGB">
<feFlood flood-opacity="0" result="BackgroundImageFix"/>
<feColorMatrix in="SourceAlpha" type="matrix" values="0 0 0 0 0 0 0 0 0 0 0 0 0 0 0 0 0 0 127 0" result="hardAlpha"/>
<feOffset dy="4"/>
<feGaussianBlur stdDeviation="2"/>
<feComposite in2="hardAlpha" operator="out"/>
<feColorMatrix type="matrix" values="0 0 0 0 0 0 0 0 0 0 0 0 0 0 0 0 0 0 0.25 0"/>
<feBlend mode="normal" in2="BackgroundImageFix" result="effect1_dropShadow_0_1"/>
<feBlend mode="normal" in="SourceGraphic" in2="effect1_dropShadow_0_1" result="shape"/>
</filter>
</defs>
</svg>
